<svg width="29" height="26" viewBox="0 0 29 26" fill="none" xmlns="http://www.w3.org/2000/svg">
    <path d="M1.68334 0.25C1.16786 0.25 0.75 0.667872 0.75 1.18334C0.75 1.69881 1.16786 2.11668 1.68334 2.11668H4.78477C6.32951 5.9426 7.85107 9.77552 9.3834 13.6084L7.97368 17.0015C7.85558 17.2844 7.88881 17.6255 8.05927 17.8803C8.22976 18.1351 8.53241 18.2959 8.83895 18.2946H24.3946C24.8877 18.3014 25.4999 17.9931 25.4999 17.5C25.4999 17.0069 24.993 15.993 24.4999 16H10.9999L11.4999 14.5L26.028 13.307C26.4201 13.2762 26.7751 12.9708 26.8641 12.5876L28.7308 4.49864C28.8529 3.95381 28.5583 2.99818 27.9999 3H6.99994L6.28197 0.833338C6.14353 0.491169 5.78581 0.250009 5.4167 0.25H1.68334ZM8.32628 5H26.4999L24.9999 11.5L11.4999 12.5L8.32628 5ZM11.9501 19.5391C10.2429 19.5391 8.83895 20.943 8.83895 22.6502C8.83895 24.3574 10.2429 25.7613 11.9501 25.7613C13.6573 25.7613 15.0612 24.3574 15.0612 22.6502C15.0612 20.943 13.6573 19.5391 11.9501 19.5391ZM21.2835 19.5391C19.5763 19.5391 18.1724 20.943 18.1724 22.6502C18.1724 24.3574 19.5763 25.7613 21.2835 25.7613C22.9907 25.7613 24.3946 24.3574 24.3946 22.6502C24.3946 20.943 22.9907 19.5391 21.2835 19.5391ZM11.9501 21.4057C12.6484 21.4057 13.1945 21.9518 13.1945 22.6502C13.1945 23.3485 12.6484 23.8946 11.9501 23.8946C11.2518 23.8946 10.7056 23.3485 10.7056 22.6502C10.7056 21.9519 11.2518 21.4057 11.9501 21.4057ZM21.2835 21.4057C21.9818 21.4057 22.5279 21.9519 22.5279 22.6502C22.5279 23.3485 21.9818 23.8946 21.2835 23.8946C20.5851 23.8946 20.039 23.3485 20.039 22.6502C20.039 21.9518 20.5851 21.4057 21.2835 21.4057Z" fill="#337FD2"/>
</svg>
