<svg width="18" height="17" viewBox="0 0 18 17" fill="none" xmlns="http://www.w3.org/2000/svg">
<path fill-rule="evenodd" clip-rule="evenodd" d="M18 2C18 2.55228 17.5523 3 17 3H1C0.447715 3 0 2.55228 0 2V1.5C0 0.947715 0.447716 0.5 1 0.5H17C17.5523 0.5 18 0.947715 18 1.5V2ZM18 9C18 9.55229 17.5523 10 17 10H1C0.447715 10 0 9.55229 0 9V8.5C0 7.94772 0.447716 7.5 1 7.5H17C17.5523 7.5 18 7.94772 18 8.5V9ZM18 16C18 16.5523 17.5523 17 17 17H1C0.447715 17 0 16.5523 0 16V15.5C0 14.9477 0.447716 14.5 1 14.5H17C17.5523 14.5 18 14.9477 18 15.5V16Z" fill="white"/>
</svg>
