<svg width="16" height="21" viewBox="0 0 16 21" fill="none" xmlns="http://www.w3.org/2000/svg">
<path d="M8 0.400024C3.589 0.400024 0 3.98902 0 8.40002C0 12.5495 5.2335 20.4 8 20.4C10.766 20.4 16 12.5495 16 8.40002C16 3.98902 12.411 0.400024 8 0.400024ZM8 18.399C6.617 18.2 2 11.915 2 8.40002C2 5.09152 4.6915 2.40002 8 2.40002C11.3085 2.40002 14 5.09152 14 8.40002C14 11.915 9.383 18.2 8 18.399Z" fill="#337FD2"/>
<path d="M8 10.4C9.10457 10.4 10 9.50459 10 8.40002C10 7.29545 9.10457 6.40002 8 6.40002C6.89543 6.40002 6 7.29545 6 8.40002C6 9.50459 6.89543 10.4 8 10.4Z" fill="#337FD2"/>
</svg>
