<svg width="17" height="21" viewBox="0 0 17 21" fill="none" xmlns="http://www.w3.org/2000/svg">
<path d="M15.2974 1.47188C14.9698 1.19905 14.5765 0.981295 14.1409 0.83156C13.7054 0.681825 13.2364 0.603158 12.7618 0.600231H3.77014C2.81799 0.59013 1.89966 0.880469 1.21652 1.40758C0.873769 1.67425 0.602938 1.99358 0.420526 2.34611C0.238115 2.69864 0.147944 3.07699 0.155507 3.45811L0.0476074 17.7475C0.0476074 18.5055 0.42654 19.2324 1.10104 19.7683C1.77555 20.3043 2.69037 20.6054 3.64426 20.6054L12.6359 20.6483C13.5826 20.647 14.4904 20.3492 15.1625 19.8195C15.4998 19.557 15.7675 19.2435 15.9497 18.8974C16.1319 18.5514 16.225 18.1798 16.2236 17.8047L16.3315 3.51527C16.3377 3.13725 16.2496 2.762 16.0721 2.41125C15.8946 2.0605 15.6313 1.74121 15.2974 1.47188ZM1.89988 6.27312H14.4882V14.9325H1.89988V6.27312ZM2.45736 2.42213C2.62867 2.29269 2.8304 2.19136 3.05103 2.12394C3.27166 2.05651 3.50686 2.02431 3.74317 2.02917L12.7348 2.07204C13.211 2.07363 13.6669 2.22523 14.0026 2.49358C14.3308 2.7486 14.5238 3.09367 14.5421 3.45811V4.88705H1.89988V3.38666C1.93005 3.01712 2.13959 2.67132 2.48434 2.42213H2.45736ZM13.8767 18.7835C13.7112 18.9186 13.5124 19.0251 13.2927 19.0964C13.073 19.1677 12.8372 19.2023 12.5999 19.1979L3.60829 19.155C3.13212 19.1534 2.67618 19.0018 2.34047 18.7335C2.02243 18.4675 1.84536 18.1144 1.84593 17.7475V16.3186H14.4882V17.819C14.458 18.1885 14.2485 18.5343 13.9037 18.7835H13.8767Z" fill="#337FD2"/>
<path d="M8.19403 17.0758C8.02686 17.0758 7.86345 17.1152 7.72445 17.189C7.58546 17.2628 7.47713 17.3677 7.41315 17.4904C7.34918 17.6132 7.33244 17.7482 7.36506 17.8785C7.39767 18.0088 7.47817 18.1284 7.59637 18.2223C7.71458 18.3163 7.86518 18.3802 8.02913 18.4061C8.19309 18.4321 8.36303 18.4188 8.51748 18.3679C8.67192 18.3171 8.80392 18.231 8.8968 18.1206C8.98967 18.0101 9.03924 17.8803 9.03924 17.7474C9.03924 17.5693 8.95019 17.3985 8.79168 17.2726C8.63317 17.1466 8.41819 17.0758 8.19403 17.0758Z" fill="#337FD2"/>
</svg>
