<svg width="23" height="23" viewBox="0 0 23 23" fill="none" xmlns="http://www.w3.org/2000/svg">
<path d="M22.6038 20.6905L17.0452 15.132C18.2303 13.5504 18.9413 11.5947 18.9413 9.47059C18.9413 4.24824 14.693 0 9.47066 0C4.24827 0 0 4.24824 0 9.47059C0 14.6929 4.24827 18.9412 9.47066 18.9412C11.5948 18.9412 13.5505 18.2302 15.1321 17.045L20.6907 22.6036C20.9552 22.8681 21.3009 23 21.6472 23C21.9936 23 22.3393 22.8681 22.6038 22.6036C23.1321 22.0753 23.1321 21.2189 22.6038 20.6905ZM2.7059 9.47059C2.7059 5.74053 5.74057 2.70588 9.47066 2.70588C13.2007 2.70588 16.2354 5.74053 16.2354 9.47059C16.2354 13.2006 13.2007 16.2353 9.47066 16.2353C5.74057 16.2353 2.7059 13.2006 2.7059 9.47059Z" fill="#337FD2"/>
</svg>
